<?xml version="1.0" standalone="no"?><!DOCTYPE svg PUBLIC "-//W3C//DTD SVG 1.1//EN" "http://www.w3.org/Graphics/SVG/1.1/DTD/svg11.dtd"><svg t="1592275290798" class="icon" viewBox="0 0 1024 1024" version="1.1" xmlns="http://www.w3.org/2000/svg" p-id="3217" width="128" height="128" xmlns:xlink="http://www.w3.org/1999/xlink"><defs><style type="text/css"></style></defs><path d="M761.9 731.8h50v51.3h-50v-51.3z m-250 102.6h100v51.3h-100v-51.3z m391.3-605.2L806 144.4c-7.1-6.2-17.1-7.8-25.8-4.2L705 172.1l-60.6 39c-8 5.2-12.4 14.6-11.5 24.3l7.5 75.5-69.9 49.3-82.4 10-65.9-36.7-40.9-81.9c-6.1-12.4-20.9-17.4-33.2-11.3l-88.8 44.5c-8.6 4.3-14.1 13.3-14 23v33.6L215.7 371H182c-6.5 0-12.7 2.6-17.3 7.2l-45 44.5c-4.9 4.9-7.6 11.5-7.6 18.5 0 6.9 2.8 13.6 7.6 18.5l39.4 39 22.6 110.1c1.2 5.8 4.3 11 8.8 14.7l82 67.5c4.4 3.6 10 5.6 15.6 5.6h90.4v55.8c0 14.2 11.2 25.7 25 25.7h100.6l45.5 31.8c7.9 5.5 18.2 5.9 26.4 1.1l61.9-36.3 85.4-33c4.5-1.8 8.5-4.9 11.4-8.9l53.7-75.7c3.1-4.4 4.8-9.7 4.8-15.1v-74.7c0-6.9-2.7-13.5-7.6-18.4l-31.4-31.3 39.7-26.9c3.7-2.5 6.7-5.9 8.7-9.9l27.9-57.1 70.5-50.4c6.7-4.8 10.7-12.7 10.7-21V248.7c0.3-7.5-2.9-14.7-8.5-19.5z m0 0" p-id="3218"></path></svg>