<?xml version="1.0" standalone="no"?><!DOCTYPE svg PUBLIC "-//W3C//DTD SVG 1.1//EN" "http://www.w3.org/Graphics/SVG/1.1/DTD/svg11.dtd"><svg t="1592477253916" class="icon" viewBox="0 0 1024 1024" version="1.1" xmlns="http://www.w3.org/2000/svg" p-id="2741" xmlns:xlink="http://www.w3.org/1999/xlink" width="128" height="128"><defs><style type="text/css"></style></defs><path d="M512 960A448 448 0 1 1 512 64a448 448 0 0 1 0 896zM512 99.84a412.16 412.16 0 1 0 0 824.32A412.16 412.16 0 1 0 512 99.84z m248.32 588.928c-43.008-6.592-145.344-14.784-227.392 36.672a44.736 44.736 0 0 1-3.008 1.6l0.128-342.4a276.736 276.736 0 0 1 237.568-40.896 18.048 18.048 0 0 1 13.184 17.6v309.184c0 11.264-9.664 19.84-20.48 18.24z m-269.888 36.48c-81.856-51.392-183.936-43.2-226.816-36.672a18.048 18.048 0 0 1-20.416-18.112V361.408c0-8.256 5.376-15.552 13.184-17.728a278.144 278.144 0 0 1 78.848-10.88h1.472v0.128a278.208 278.208 0 0 1 157.376 52.352l-0.192 341.76a22.08 22.08 0 0 1-3.456-1.792z" p-id="2742"></path></svg>