<?xml version="1.0" standalone="no"?><!DOCTYPE svg PUBLIC "-//W3C//DTD SVG 1.1//EN" "http://www.w3.org/Graphics/SVG/1.1/DTD/svg11.dtd"><svg t="1592278243567" class="icon" viewBox="0 0 1024 1024" version="1.1" xmlns="http://www.w3.org/2000/svg" p-id="11632" xmlns:xlink="http://www.w3.org/1999/xlink" width="128" height="128"><defs><style type="text/css"></style></defs><path d="M907.7 525.9c0.2 2.3 0.7 4.4 0.7 6.7v354.2c0 46-37.3 83.3-83.3 83.3h-625c-46 0-83.3-37.3-83.3-83.3V532.6c0-2.3 0.5-4.5 0.7-6.8-60.4-17.9-104.7-73.1-104.7-139.2 0-80.5 65.3-145.8 145.8-145.8h38.6c-21.9-37.4-24.2-85-1.1-125.2C230.3 56 306.3 35.7 365.8 70.3L513 155.8l147.4-85.5C720 35.7 796 56 830.3 115.6c23.1 40.3 20.7 87.8-1.4 125.2H867c80.5 0 145.8 65.3 145.8 145.8 0 66.3-44.5 121.6-105.1 139.3zM554.5 886.8h270.8V532.6H554.5v354.2z m-354.2 0h270.8V532.6H200.3v354.2z m-104.2-500c0 34.5 28 62.5 62.5 62.5H471v-125H158.6c-34.5 0-62.5 28-62.5 62.5z m228.2-244.6c-19.8-11.5-45.2-4.7-56.7 15.2s-4.7 45.3 15.2 56.8l45.7 26.5h166l-170.2-98.5z m419.1 72.1c19.9-11.5 26.7-36.9 15.2-56.8s-36.9-26.7-56.8-15.2l-170.5 98.5h166.2l45.9-26.5z m123.6 110H554.5v125H867c34.5 0 62.5-28 62.5-62.5s-28-62.5-62.5-62.5z" p-id="11633"></path></svg>