<?xml version="1.0" standalone="no"?><!DOCTYPE svg PUBLIC "-//W3C//DTD SVG 1.1//EN" "http://www.w3.org/Graphics/SVG/1.1/DTD/svg11.dtd"><svg t="1594784103330" class="icon" viewBox="0 0 1024 1024" version="1.1" xmlns="http://www.w3.org/2000/svg" p-id="3057" xmlns:xlink="http://www.w3.org/1999/xlink" width="128" height="128"><defs><style type="text/css"></style></defs><path d="M954.112 343.86944V810.7264c0 21.78048 0.7168 42.8544-8.33536 63.47776-26.60352 60.61056-85.8624 58.8032-140.66176 58.8032H195.43552c-64.10752 0-108.5952-43.20256-108.5952-107.72992V417.88416 226.59072c0-11.93984-0.13312-23.8848 0.19968-35.81952 1.43872-51.62496 49.46944-91.86304 99.24096-91.86304H796.89728c55.22432 0 97.64864 44.78976 99.15904 98.93376 0.9216 32.9472 52.1216 33.03936 51.2 0-2.5344-90.91584-74.47552-150.13376-162.16576-150.13376H197.80608c-87.68512 0-159.62624 59.21792-162.16064 150.13376-1.03936 37.31456 0 74.80832 0 112.13312v459.23328c0 51.58912-4.37248 102.33856 25.22624 148.10112 27.01824 41.75872 75.98592 66.89792 125.3632 66.89792h651.46368c19.84512 0 38.96832-0.68608 58.48064-5.66272 54.59456-13.94688 95.78496-62.60224 106.48064-116.7872 9.14432-46.35648 2.65728-99.03104 2.65728-145.79712V470.95296 343.86432c-0.00512-33.01376-51.20512-33.01376-51.20512 0.00512z" p-id="3058"></path><path d="M279.04 241.53088h576.07168c55.15776 0 97.48992 44.91776 98.9952 98.92864 0.9216 32.9472 52.1216 33.03424 51.2 0-2.55488-91.50464-74.99776-150.12864-162.944-150.12864H279.03488c-33.01376 0-33.01376 51.2 0.00512 51.2zM353.18784 386.75456a641855.6928 641855.6928 0 0 0 156.24192 156.19072c9.86112 9.86624 26.3424 9.86624 36.1984 0 52.224-52.18304 104.448-104.40192 156.672-156.61568 23.36768-23.36256-12.83584-59.5712-36.1984-36.20352l-156.672 156.65152h36.1984L389.39136 350.55104c-23.36768-23.36768-59.5712 12.84096-36.20352 36.20352zM309.67296 630.25664h430.09024c33.01376 0 33.01376-51.2 0-51.2H309.67296c-33.01376 0-33.01376 51.2 0 51.2zM309.67296 761.77408h430.09024c33.01376 0 33.01376-51.2 0-51.2H309.67296c-33.01376 0-33.01376 51.2 0 51.2z" p-id="3059"></path><path d="M503.18848 523.60704v308.1984c0 33.01376 51.2 33.01376 51.2 0v-308.1984c0-33.01888-51.2-33.01888-51.2 0z" p-id="3060"></path></svg>