<?xml version="1.0" standalone="no"?><!DOCTYPE svg PUBLIC "-//W3C//DTD SVG 1.1//EN" "http://www.w3.org/Graphics/SVG/1.1/DTD/svg11.dtd"><svg t="1592278714497" class="icon" viewBox="0 0 1024 1024" version="1.1" xmlns="http://www.w3.org/2000/svg" p-id="14965" xmlns:xlink="http://www.w3.org/1999/xlink" width="128" height="128"><defs><style type="text/css"></style></defs><path d="M866.133333 934.4H157.866667C117.333333 934.4 85.333333 908.8 85.333333 874.666667V149.333333c0-34.133333 32-59.733333 72.533334-59.733333h710.4C906.666667 89.6 938.666667 115.2 938.666667 149.333333v725.333334c0 34.133333-32 59.733333-72.533334 59.733333zM136.533333 874.666667c0 2.133333 8.533333 8.533333 21.333334 8.533333h710.4c12.8 0 21.333333-6.4 21.333333-8.533333V149.333333c0-2.133333-8.533333-8.533333-21.333333-8.533333H157.866667c-12.8 0-21.333333 6.4-21.333334 8.533333v725.333334z" fill="" p-id="14966"></path><path d="M832 294.4h-72.533333V181.333333h-53.333334v113.066667H192v53.333333h471.466667l-405.333334 405.333334 36.266667 38.4 411.733333-409.6v460.8h53.333334V347.733333H832z" fill="" p-id="14967"></path></svg>