<?xml version="1.0" standalone="no"?><!DOCTYPE svg PUBLIC "-//W3C//DTD SVG 1.1//EN" "http://www.w3.org/Graphics/SVG/1.1/DTD/svg11.dtd"><svg t="1594348639619" class="icon" viewBox="0 0 1024 1024" version="1.1" xmlns="http://www.w3.org/2000/svg" p-id="2140" xmlns:xlink="http://www.w3.org/1999/xlink" width="128" height="128"><defs><style type="text/css"></style></defs><path d="M560.633139 162.477488c-13.901615-6.832615-28.731368-5.465478-40.683585 3.756557-43.651173 33.68417-158.526503 135.171586-177.839361 152.270009L195.421296 318.504054c-35.741016 0-64.817238 29.077246-64.817238 64.817238l0 233.125525c0 35.741016 29.077246 64.819285 64.817238 64.819285l125.750005 0c25.904996 23.344684 150.011572 134.904503 198.567451 173.373653 6.955412 5.506411 14.926968 8.299013 23.14514 8.299013 5.77247 0 11.664667-1.37737 17.414625-4.158716 20.770046-10.047844 37.668924-38.889729 37.668924-64.293305l0-567.93494C597.967442 201.338564 581.21899 172.594917 560.633139 162.477488zM554.754245 794.487769c0 8.772804-6.611581 19.756973-11.158131 23.908526-54.496172-43.753503-196.608843-172.035168-198.065008-173.350117-0.00921-0.00921-0.020466-0.01535-0.029676-0.023536-3.946892-4.27435-9.581216-6.967692-15.858176-6.967692L195.421296 638.054951c-11.913331 0-21.606087-9.692756-21.606087-21.606087L173.815209 383.322315c0-11.913331 9.692756-21.606087 21.606087-21.606087l150.566204 0c4.353145 0 8.399297-1.299599 11.790534-3.514033 3.737114-0.690732 7.343245-2.350534 10.393721-5.056156 1.295506-1.14815 127.486556-112.995517 175.377286-150.524249 4.524037 4.041036 11.20418 15.081487 11.20418 23.930015L554.753221 794.487769z" p-id="2141"></path><path d="M799.893384 512.647753c-5.564739-85.614913-69.287039-140.719952-71.996754-143.023414-9.089006-7.728008-22.725584-6.625908-30.455639 2.466168-7.729032 9.091052-6.625908 22.726607 2.466168 30.455639 0.523933 0.446162 52.474119 45.350884 56.865125 112.904443 2.917446 44.875047-16.032138 90.163509-56.319703 134.607744-8.013511 8.841366-7.344269 22.50455 1.497097 30.519084 4.137227 3.749394 9.328459 5.598508 14.504342 5.598508 5.886057 0 11.750625-2.391467 16.014742-7.095605C780.913101 625.638153 803.597753 569.641815 799.893384 512.647753z" p-id="2142"></path><path d="M916.536988 408.311453c-33.194006-93.424786-95.514377-149.890822-98.150414-152.24852-8.894577-7.953136-22.552645-7.192819-30.507828 1.702782-7.954159 8.894577-7.191796 22.553669 1.701758 30.507828 0.563842 0.50449 56.69628 51.358715 86.238107 134.505413 17.195637 48.393173 21.87931 97.969289 13.923104 147.354046-10.06217 62.458517-40.516786 125.211746-90.517573 186.518021-7.541767 9.246595-6.15928 22.857591 3.088338 30.399357 4.01136 3.270487 8.841366 4.862751 13.642718 4.862751 6.26775 0 12.485359-2.714831 16.756639-7.951089 54.864562-67.26908 88.406492-136.89995 99.692536-206.956515C941.527149 520.376785 936.18856 463.62013 916.536988 408.311453z" p-id="2143"></path></svg>