<?xml version="1.0" standalone="no"?><!DOCTYPE svg PUBLIC "-//W3C//DTD SVG 1.1//EN" "http://www.w3.org/Graphics/SVG/1.1/DTD/svg11.dtd"><svg t="1592278323401" class="icon" viewBox="0 0 1024 1024" version="1.1" xmlns="http://www.w3.org/2000/svg" p-id="12445" xmlns:xlink="http://www.w3.org/1999/xlink" width="128" height="128"><defs><style type="text/css"></style></defs><path d="M440.556 119.868h144c15.464 0 28-12.536 28-28s-12.536-28-28-28h-144c-15.464 0-28 12.536-28 28s12.536 28 28 28zM677.16 325.751h-344c-15.464 0-28 12.536-28 28s12.536 28 28 28h344c15.464 0 28-12.536 28-28s-12.536-28-28-28zM677.16 483.233h-344c-15.464 0-28 12.536-28 28s12.536 28 28 28h344c15.464 0 28-12.536 28-28s-12.536-28-28-28zM677.16 640.715h-344c-15.464 0-28 12.536-28 28s12.536 28 28 28h344c15.464 0 28-12.536 28-28 0-15.463-12.536-28-28-28z" p-id="12446"></path><path d="M807.126 64.223h-60.55v0.002l-0.075-0.002c-15.464 0-28 12.536-28 28s12.536 28 28 28l0.075-0.002v0.002h60.55c8.982 0 17.493 3.564 23.965 10.036 6.471 6.471 10.035 14.982 10.035 23.964v716c0 8.982-3.564 17.493-10.035 23.964s-14.982 10.036-23.965 10.036H218.025c-8.982 0-17.493-3.564-23.965-10.036s-10.035-14.982-10.035-23.964v-716c0-8.982 3.564-17.493 10.035-23.964 6.471-6.472 14.982-10.036 23.965-10.036h60.55v-0.002l0.091 0.002c15.464 0 28-12.536 28-28s-12.536-28-28-28l-0.091 0.002v-0.002h-60.55c-49.5 0-90 40.5-90 90v716c0 49.5 40.5 90 90 90h589.101c49.5 0 90-40.5 90-90v-716c0-49.5-40.5-90-90-90z" p-id="12447"></path></svg>